<svg xmlns="http://www.w3.org/2000/svg" xmlns:xlink="http://www.w3.org/1999/xlink" width="500" zoomAndPan="magnify" viewBox="0 0 375 374.999991" height="500" preserveAspectRatio="xMidYMid meet" version="1.0"><defs><g/><clipPath id="id1"><path d="M 125.480469 162.855469 L 153 162.855469 L 153 206.742188 L 125.480469 206.742188 Z M 125.480469 162.855469 " clip-rule="nonzero"/></clipPath><clipPath id="id2"><path d="M 155 162.855469 L 182.871094 162.855469 L 182.871094 206.742188 L 155 206.742188 Z M 155 162.855469 " clip-rule="nonzero"/></clipPath><clipPath id="id3"><path d="M 93 180.128906 L 120.835938 180.128906 L 120.835938 224.015625 L 93 224.015625 Z M 93 180.128906 " clip-rule="nonzero"/></clipPath><clipPath id="id4"><path d="M 63.445312 180.128906 L 92 180.128906 L 92 224.015625 L 63.445312 224.015625 Z M 63.445312 180.128906 " clip-rule="nonzero"/></clipPath></defs><rect x="-37.5" width="450" fill="#ffffff" y="-37.499999" height="449.999989" fill-opacity="1"/><rect x="-37.5" width="450" fill="#253439" y="-37.499999" height="449.999989" fill-opacity="1"/><rect x="-37.5" width="450" fill="#ffffff" y="-37.499999" height="449.999989" fill-opacity="1"/><rect x="-37.5" width="450" fill="#253439" y="-37.499999" height="449.999989" fill-opacity="1"/><g clip-path="url(#id1)"><path fill="#ffffff" d="M 140.332031 181.636719 C 137.617188 181.636719 135.121094 182.546875 133.101562 184.066406 C 133.300781 177.738281 138.160156 171.40625 147.75 165.078125 L 146.328125 162.855469 C 132.433594 171.542969 125.484375 181.078125 125.484375 191.457031 C 125.484375 196.226562 126.773438 199.960938 129.351562 202.660156 C 131.929688 205.363281 135.195312 206.710938 139.144531 206.710938 C 143.09375 206.710938 146.273438 205.625 148.695312 203.453125 C 151.117188 201.285156 152.328125 198.660156 152.328125 195.589844 C 152.328125 195.554688 152.324219 195.53125 152.324219 195.492188 C 152.398438 194.949219 152.449219 194.398438 152.449219 193.828125 C 152.449219 187.097656 147.023438 181.636719 140.332031 181.636719 Z M 140.332031 181.636719 " fill-opacity="1" fill-rule="nonzero"/></g><g clip-path="url(#id2)"><path fill="#ffffff" d="M 179.507812 202.246094 C 179.664062 202.0625 179.851562 201.890625 179.996094 201.699219 C 181.78125 199.574219 182.867188 196.832031 182.867188 193.828125 C 182.867188 187.097656 177.441406 181.636719 170.75 181.636719 C 167.6875 181.636719 164.898438 182.792969 162.761719 184.679688 C 162.761719 184.605469 162.75 184.542969 162.75 184.464844 C 162.75 178.003906 167.644531 171.539062 177.4375 165.074219 L 176.015625 162.855469 C 162.117188 171.542969 155.167969 181.078125 155.167969 191.460938 C 155.167969 196.226562 156.457031 199.960938 159.039062 202.660156 C 161.617188 205.363281 164.882812 206.714844 168.828125 206.714844 C 172.777344 206.714844 175.960938 205.628906 178.382812 203.453125 C 178.726562 203.152344 178.992188 202.8125 179.285156 202.484375 C 179.359375 202.410156 179.429688 202.328125 179.507812 202.246094 Z M 179.507812 202.246094 " fill-opacity="1" fill-rule="nonzero"/></g><g fill="#ffffff" fill-opacity="1"><g transform="translate(13.271803, 201.003525)"><g><path d="M 4.84375 0 C 5.433594 0 5.695312 -0.195312 6.019531 -0.917969 L 11.386719 -12.761719 L 34.949219 -12.761719 L 40.316406 -0.917969 C 40.710938 -0.195312 40.90625 0 41.496094 0 L 44.507812 0 C 45.09375 0 45.355469 -0.394531 45.09375 -0.917969 L 23.953125 -46.207031 C 23.757812 -46.664062 23.5625 -46.992188 23.300781 -46.992188 L 23.105469 -46.992188 C 22.777344 -46.992188 22.582031 -46.664062 22.382812 -46.207031 L 1.242188 -0.917969 C 1.046875 -0.394531 1.242188 0 1.765625 0 Z M 23.234375 -39.464844 L 33.511719 -16.492188 L 12.828125 -16.492188 L 23.167969 -39.464844 Z M 23.234375 -39.464844 "/></g></g></g><g fill="#ffffff" fill-opacity="1"><g transform="translate(181.24647, 204.612114)"><g><path d="M 5.484375 -20.234375 C 5.046875 -20.234375 4.929688 -20.113281 4.929688 -19.675781 L 4.929688 -0.554688 C 4.929688 -0.121094 5.046875 0 5.484375 0 L 6.835938 0 C 7.273438 0 7.394531 -0.121094 7.394531 -0.554688 L 7.394531 -19.675781 C 7.394531 -20.074219 7.3125 -20.234375 6.835938 -20.234375 Z M 4.292969 -26.953125 C 4.292969 -25.957031 5.089844 -25.121094 6.121094 -25.121094 C 7.117188 -25.121094 7.988281 -25.957031 7.988281 -26.953125 C 7.988281 -27.984375 7.117188 -28.820312 6.121094 -28.820312 C 5.089844 -28.820312 4.292969 -27.984375 4.292969 -26.953125 Z M 4.292969 -26.953125 "/></g></g></g><g fill="#ffffff" fill-opacity="1"><g transform="translate(193.488196, 204.612114)"><g><path d="M 14.867188 -20.671875 C 8.945312 -20.671875 7.074219 -16.933594 6.359375 -15.382812 L 6.003906 -19.675781 C 5.882812 -20.074219 5.722656 -20.234375 5.445312 -20.234375 L 4.609375 -20.234375 C 4.253906 -20.234375 4.09375 -20.113281 4.09375 -19.675781 L 4.09375 -0.554688 C 4.09375 -0.121094 4.253906 0 4.609375 0 L 6.042969 0 C 6.441406 0 6.558594 -0.160156 6.558594 -0.554688 L 6.558594 -10.574219 C 6.558594 -14.390625 9.144531 -18.246094 14.507812 -18.246094 C 14.945312 -18.246094 15.066406 -18.324219 15.144531 -18.761719 L 15.34375 -20.195312 C 15.421875 -20.511719 15.34375 -20.671875 14.867188 -20.671875 Z M 14.867188 -20.671875 "/></g></g></g><g fill="#ffffff" fill-opacity="1"><g transform="translate(209.863495, 204.612114)"><g><path d="M 20.074219 -10.890625 C 20.074219 -15.503906 22.539062 -18.40625 25.601562 -18.40625 C 28.460938 -18.40625 31.164062 -15.980469 31.164062 -11.050781 L 31.164062 -0.554688 C 31.164062 -0.121094 31.324219 0 31.679688 0 L 33.113281 0 C 33.511719 0 33.628906 -0.160156 33.628906 -0.554688 L 33.628906 -11.804688 C 33.628906 -18.007812 29.933594 -20.671875 26.195312 -20.671875 C 22.222656 -20.671875 20.113281 -17.25 19.398438 -15.464844 C 18.761719 -17.371094 16.65625 -20.671875 12.640625 -20.671875 C 8.707031 -20.671875 6.796875 -17.292969 6.199219 -15.621094 L 5.960938 -19.675781 C 5.804688 -20.074219 5.683594 -20.234375 5.367188 -20.234375 L 4.53125 -20.234375 C 4.175781 -20.234375 4.015625 -20.113281 4.015625 -19.675781 L 4.015625 -0.554688 C 4.015625 -0.121094 4.175781 0 4.53125 0 L 5.960938 0 C 6.359375 0 6.480469 -0.160156 6.480469 -0.554688 L 6.480469 -10.773438 C 6.480469 -15.066406 8.707031 -18.40625 12.042969 -18.40625 C 15.421875 -18.40625 17.609375 -15.34375 17.609375 -11.050781 L 17.609375 -0.554688 C 17.609375 -0.121094 17.769531 0 18.125 0 L 19.558594 0 C 19.953125 0 20.074219 -0.160156 20.074219 -0.554688 Z M 20.074219 -10.890625 "/></g></g></g><g fill="#ffffff" fill-opacity="1"><g transform="translate(246.429684, 204.612114)"><g><path d="M 19 0 C 19.398438 0 19.519531 -0.160156 19.519531 -0.554688 L 19.519531 -11.171875 C 19.519531 -17.808594 17.53125 -20.671875 11.171875 -20.671875 C 8.070312 -20.671875 4.851562 -20.074219 4.371094 -19.953125 C 3.933594 -19.835938 3.816406 -19.636719 3.933594 -19.238281 L 4.175781 -18.324219 C 4.253906 -17.96875 4.332031 -17.769531 4.609375 -17.769531 C 4.652344 -17.769531 4.730469 -17.769531 4.851562 -17.808594 C 6.398438 -18.125 8.46875 -18.484375 11.089844 -18.484375 C 15.464844 -18.484375 17.054688 -16.496094 17.054688 -11.089844 C 14.945312 -12.003906 12.679688 -12.601562 10.414062 -12.601562 C 5.367188 -12.601562 2.148438 -10.496094 2.148438 -6.121094 C 2.148438 -1.949219 5.367188 0.4375 9.261719 0.4375 C 13.59375 0.4375 16.378906 -2.027344 17.410156 -3.539062 L 17.53125 -0.554688 C 17.648438 -0.160156 17.769531 0 18.046875 0 Z M 4.609375 -6.121094 C 4.609375 -9.144531 6.835938 -10.691406 10.890625 -10.691406 C 13.316406 -10.691406 14.945312 -10.058594 17.054688 -9.144531 L 17.054688 -5.566406 C 15.78125 -3.617188 13 -1.550781 9.976562 -1.550781 C 6.597656 -1.550781 4.609375 -3.378906 4.609375 -6.121094 Z M 4.609375 -6.121094 "/></g></g></g><g fill="#ffffff" fill-opacity="1"><g transform="translate(268.886092, 204.612114)"><g><path d="M 6.996094 -20.234375 L 6.996094 -24.40625 C 6.996094 -24.84375 6.875 -24.964844 6.441406 -24.964844 L 5.089844 -24.964844 C 4.652344 -24.964844 4.53125 -24.804688 4.53125 -24.40625 L 4.53125 -20.234375 L 2.425781 -20.234375 C 2.027344 -20.234375 1.867188 -20.113281 1.867188 -19.675781 L 1.867188 -18.722656 C 1.867188 -18.285156 1.988281 -18.167969 2.425781 -18.167969 L 4.53125 -18.167969 L 4.53125 -8.425781 C 4.53125 -2.863281 6.359375 0.4375 11.605469 0.4375 C 12.125 0.4375 13.792969 0.4375 15.382812 -0.476562 C 15.660156 -0.675781 15.703125 -0.796875 15.621094 -1.152344 L 15.382812 -2.1875 C 15.304688 -2.464844 15.226562 -2.582031 15.105469 -2.582031 C 14.984375 -2.582031 14.867188 -2.503906 14.707031 -2.425781 C 13.675781 -1.90625 13.039062 -1.828125 11.847656 -1.828125 C 8.425781 -1.828125 6.996094 -3.617188 6.996094 -8.625 L 6.996094 -18.167969 L 14.507812 -18.167969 C 14.945312 -18.167969 15.066406 -18.285156 15.066406 -18.722656 L 15.066406 -19.675781 C 15.066406 -20.113281 14.90625 -20.234375 14.507812 -20.234375 Z M 6.996094 -20.234375 "/></g></g></g><g fill="#ffffff" fill-opacity="1"><g transform="translate(286.25503, 204.612114)"><g><path d="M 5.484375 -20.234375 C 5.046875 -20.234375 4.929688 -20.113281 4.929688 -19.675781 L 4.929688 -0.554688 C 4.929688 -0.121094 5.046875 0 5.484375 0 L 6.835938 0 C 7.273438 0 7.394531 -0.121094 7.394531 -0.554688 L 7.394531 -19.675781 C 7.394531 -20.074219 7.3125 -20.234375 6.835938 -20.234375 Z M 4.292969 -26.953125 C 4.292969 -25.957031 5.089844 -25.121094 6.121094 -25.121094 C 7.117188 -25.121094 7.988281 -25.957031 7.988281 -26.953125 C 7.988281 -27.984375 7.117188 -28.820312 6.121094 -28.820312 C 5.089844 -28.820312 4.292969 -27.984375 4.292969 -26.953125 Z M 4.292969 -26.953125 "/></g></g></g><g fill="#ffffff" fill-opacity="1"><g transform="translate(298.496757, 204.612114)"><g><path d="M 12.402344 -20.671875 C 6.597656 -20.671875 1.988281 -15.902344 1.988281 -10.097656 C 1.988281 -4.292969 6.597656 0.4375 12.402344 0.4375 C 18.207031 0.4375 22.855469 -4.292969 22.855469 -10.097656 C 22.855469 -15.902344 18.207031 -20.671875 12.402344 -20.671875 Z M 12.402344 -18.40625 C 16.855469 -18.40625 20.390625 -14.707031 20.390625 -10.097656 C 20.390625 -5.484375 16.855469 -1.789062 12.402344 -1.789062 C 7.988281 -1.789062 4.453125 -5.484375 4.453125 -10.097656 C 4.453125 -14.707031 7.988281 -18.40625 12.402344 -18.40625 Z M 12.402344 -18.40625 "/></g></g></g><g fill="#ffffff" fill-opacity="1"><g transform="translate(323.337922, 204.612114)"><g><path d="M 4.09375 -0.554688 C 4.09375 -0.121094 4.253906 0 4.609375 0 L 6.042969 0 C 6.441406 0 6.558594 -0.160156 6.558594 -0.554688 L 6.558594 -10.773438 C 6.558594 -14.789062 9.023438 -18.40625 12.640625 -18.40625 C 16.019531 -18.40625 18.683594 -15.980469 18.683594 -11.050781 L 18.683594 -0.554688 C 18.683594 -0.121094 18.84375 0 19.199219 0 L 20.628906 0 C 21.027344 0 21.148438 -0.160156 21.148438 -0.554688 L 21.148438 -11.804688 C 21.148438 -18.007812 17.410156 -20.671875 13.238281 -20.671875 C 9.144531 -20.671875 6.957031 -17.292969 6.242188 -15.742188 L 6.003906 -19.675781 C 5.882812 -20.074219 5.722656 -20.234375 5.445312 -20.234375 L 4.609375 -20.234375 C 4.253906 -20.234375 4.09375 -20.113281 4.09375 -19.675781 Z M 4.09375 -0.554688 "/></g></g></g><g fill="#ffffff" fill-opacity="1"><g transform="translate(347.423909, 204.612114)"><g><path d="M 17.648438 -17.6875 C 17.808594 -17.96875 17.886719 -18.207031 17.449219 -18.445312 C 14.707031 -20.152344 11.964844 -20.671875 9.898438 -20.671875 C 5.246094 -20.671875 2.386719 -18.285156 2.386719 -14.550781 C 2.386719 -10.414062 6.199219 -9.621094 10.058594 -9.101562 C 13.875 -8.546875 15.980469 -7.511719 15.980469 -5.644531 C 15.980469 -3.457031 14.308594 -1.589844 10.175781 -1.589844 C 7.511719 -1.589844 5.089844 -2.582031 3.257812 -3.894531 C 3.101562 -4.015625 2.980469 -4.054688 2.902344 -4.054688 C 2.703125 -4.054688 2.582031 -3.894531 2.464844 -3.695312 L 1.988281 -2.863281 C 1.789062 -2.503906 1.789062 -2.304688 2.105469 -2.105469 C 5.046875 -0.160156 8.1875 0.4375 10.296875 0.4375 C 15.421875 0.4375 18.324219 -2.1875 18.324219 -5.765625 C 18.324219 -9.5 14.46875 -10.773438 10.613281 -11.328125 C 6.796875 -11.886719 4.730469 -12.28125 4.730469 -14.667969 C 4.730469 -17.054688 6.480469 -18.644531 10.015625 -18.644531 C 12.640625 -18.644531 14.152344 -18.046875 16.457031 -16.65625 C 16.617188 -16.578125 16.734375 -16.496094 16.816406 -16.496094 C 17.011719 -16.496094 17.09375 -16.65625 17.210938 -16.894531 Z M 17.648438 -17.6875 "/></g></g></g><g clip-path="url(#id3)"><path fill="#ffffff" d="M 105.984375 205.230469 C 108.695312 205.230469 111.195312 204.320312 113.214844 202.804688 C 113.015625 209.132812 108.15625 215.460938 98.566406 221.792969 L 99.988281 224.015625 C 113.882812 215.328125 120.832031 205.792969 120.832031 195.410156 C 120.832031 190.644531 119.542969 186.910156 116.960938 184.210938 C 114.382812 181.507812 111.121094 180.160156 107.171875 180.160156 C 103.222656 180.160156 100.039062 181.242188 97.617188 183.414062 C 95.199219 185.585938 93.988281 188.210938 93.988281 191.28125 C 93.988281 191.3125 93.992188 191.339844 93.992188 191.375 C 93.917969 191.921875 93.867188 192.472656 93.867188 193.039062 C 93.867188 199.769531 99.292969 205.230469 105.984375 205.230469 Z M 105.984375 205.230469 " fill-opacity="1" fill-rule="nonzero"/></g><g clip-path="url(#id4)"><path fill="#ffffff" d="M 66.808594 184.621094 C 66.652344 184.804688 66.460938 184.980469 66.320312 185.167969 C 64.535156 187.292969 63.449219 190.035156 63.449219 193.039062 C 63.449219 199.769531 68.875 205.230469 75.566406 205.230469 C 78.628906 205.230469 81.417969 204.078125 83.554688 202.1875 C 83.554688 202.265625 83.566406 202.328125 83.566406 202.40625 C 83.566406 208.867188 78.671875 215.332031 68.878906 221.792969 L 70.300781 224.015625 C 84.195312 215.328125 91.144531 205.792969 91.144531 195.410156 C 91.144531 190.640625 89.855469 186.90625 87.277344 184.207031 C 84.699219 181.503906 81.433594 180.15625 77.488281 180.15625 C 73.539062 180.15625 70.351562 181.242188 67.933594 183.414062 C 67.589844 183.71875 67.324219 184.058594 67.03125 184.382812 C 66.953125 184.460938 66.886719 184.542969 66.808594 184.621094 Z M 66.808594 184.621094 " fill-opacity="1" fill-rule="nonzero"/></g></svg>